<svg viewBox="0 0 500 500" version="1.1" id="svg_null" xmlns="http://www.w3.org/2000/svg" xmlns:xlink="http://www.w3.org/1999/xlink">
<g id="root" stroke="none" stroke-width="1" fill="none" fill-rule="evenodd">
	<rect id="background" fill="#FFF" x="0" y="0" width="500" height="500"></rect>
	<svg xmlns="http://www.w3.org/2000/svg" xmlns:xlink="http://www.w3.org/1999/xlink" viewBox="0 0 26 26" version="1.1" fill="#301781" id="svg_icon.primary" x="230" y="58" width="40" height="40"><g id="surface1" fill="#301781"><path style=" " d="M 13 0 C 11.457031 0 9.988281 0.3125 8.84375 1.21875 C 7.972656 1.910156 7.367188 2.9375 7.125 4.21875 C 6.460938 4.546875 6 5.214844 6 6 L 6 8.59375 C 4.8125 9.277344 4 10.527344 4 12 L 4 19 C 4 19.523438 4.183594 20.058594 4.5625 20.4375 C 4.941406 20.816406 5.476563 21 6 21 L 7 21 L 7 25 C 7 25.550781 7.449219 26 8 26 L 18 26 C 18.550781 26 19 25.550781 19 25 L 19 21 L 20 21 C 20.523438 21 21.058594 20.816406 21.4375 20.4375 C 21.816406 20.058594 22 19.523438 22 19 L 22 12 C 22 10.527344 21.1875 9.277344 20 8.59375 L 20 6 C 20 5.214844 19.539063 4.546875 18.875 4.21875 C 18.632813 2.917969 18.035156 1.871094 17.15625 1.1875 C 16.003906 0.289063 14.53125 0 13 0 Z M 13 2 C 14.269531 2 15.292969 2.246094 15.9375 2.75 C 16.582031 3.253906 17 4.015625 17 5.5 C 17 6.984375 16.582031 7.746094 15.9375 8.25 C 15.292969 8.753906 14.269531 9 13 9 C 11.742188 9 10.714844 8.738281 10.0625 8.21875 C 9.410156 7.699219 9 6.929688 9 5.5 C 9 4.070313 9.410156 3.300781 10.0625 2.78125 C 10.714844 2.261719 11.742188 2 13 2 Z M 13 3 C 11.699219 3 10 3.699219 10 5 L 10 6 C 10 6.601563 10.398438 7 11 7 L 15 7 C 15.601563 7 16 6.601563 16 6 L 16 5 C 16 3.800781 14.300781 3 13 3 Z M 8 10 L 9.09375 10 C 9.113281 10 9.136719 10 9.15625 10 C 10.25 10.734375 11.59375 11 13 11 C 14.417969 11 15.792969 10.753906 16.90625 10 L 18 10 C 19.191406 10 20 10.808594 20 12 L 20 15 L 19 15 L 19 13 C 19.003906 12.640625 18.816406 12.304688 18.503906 12.121094 C 18.191406 11.941406 17.808594 11.941406 17.496094 12.121094 C 17.183594 12.304688 16.996094 12.640625 17 13 L 17 19.8125 C 17 19.84375 17 19.875 17 19.90625 L 17 20 C 16.992188 20.074219 16.992188 20.144531 17 20.21875 L 17 22.3125 C 16.5625 22.128906 16.054688 22 15.5 22 C 14.945313 22 14.4375 22.128906 14 22.3125 L 14 19 C 14.011719 18.710938 13.894531 18.433594 13.6875 18.238281 C 13.476563 18.039063 13.191406 17.941406 12.90625 17.96875 C 12.863281 17.976563 12.820313 17.988281 12.78125 18 C 12.316406 18.105469 11.988281 18.523438 12 19 L 12 22.3125 C 11.5625 22.128906 11.054688 22 10.5 22 C 9.945313 22 9.4375 22.128906 9 22.3125 L 9 20.1875 C 9.027344 20.054688 9.027344 19.914063 9 19.78125 L 9 13 C 9.007813 12.691406 8.871094 12.398438 8.632813 12.203125 C 8.398438 12.007813 8.082031 11.933594 7.78125 12 C 7.316406 12.105469 6.988281 12.523438 7 13 L 7 15 L 6 15 L 6 12 C 6 10.808594 6.808594 10 8 10 Z M 12 13 C 11.398438 13 11 13.398438 11 14 L 11 15 C 11 15.601563 11.398438 16 12 16 L 14 16 C 14.601563 16 15 15.601563 15 15 L 15 14 C 15 13.398438 14.601563 13 14 13 Z M 6 16 L 7 16 L 7 17 L 6 17 Z M 19 16 L 20 16 L 20 17 L 19 17 Z M 6 18 L 7 18 L 7 19 L 6 19 Z M 19 18 L 20 18 L 20 19 L 19 19 Z M 10.5 23 C 11.023438 23 11.582031 23.21875 12 23.4375 L 12 24 L 9 24 L 9 23.4375 C 9.417969 23.21875 9.976563 23 10.5 23 Z M 15.5 23 C 16.023438 23 16.582031 23.21875 17 23.4375 L 17 24 L 14 24 L 14 23.4375 C 14.417969 23.21875 14.976563 23 15.5 23 Z " fill="#301781" opacity=".9" ></path></g></svg>
	<g id="shape" transform="translate(113.000000, 58.000000)" fill="#301781">
		<path d="M137.5 259c67.103 0 121.5 -54.397 121.5 -121.5c0 -67.103 -54.397 -121.5 -121.5 -121.5c-67.103 0 -121.5 54.397 -121.5 121.5c0 67.103 54.397 121.5 121.5 121.5z" id="shape.primary" fill-opacity=".2" opacity=".3" fill="#301781"></path>
		<path d="M136.5 224c48.325 0 87.5 -39.175 87.5 -87.5c0 -48.325 -39.175 -87.5 -87.5 -87.5c-48.325 0 -87.5 39.175 -87.5 87.5c0 48.325 39.175 87.5 87.5 87.5z" id="shape.primary" fill-opacity=".5" opacity=".6" fill="#301781"></path>
		<path d="M137 198c33.69 0 61 -27.31 61 -61c0 -33.69 -27.31 -61 -61 -61c-33.69 0 -61 27.31 -61 61c0 33.69 27.31 61 61 61z" id="shape.primary" fill-opacity=".7" opacity=".8" fill="#301781"></path>
		<path d="M136 177c22.091 0 40 -17.909 40 -40c0 -22.091 -17.909 -40 -40 -40c-22.091 0 -40 17.909 -40 40c0 22.091 17.909 40 40 40z" id="shape.primary" fill-opacity=".9" opacity=".9" fill="#301781"></path>
		
		<path d="M137.5 236.5c-54.676 0 -99 -44.324 -99 -99c0 -54.676 44.324 -99 99 -99c54.676 0 99 44.324 99 99c0 54.676 -44.324 99 -99 99zm0 -3c53.02 0 96 -42.98 96 -96c0 -53.02 -42.98 -96 -96 -96c-53.02 0 -96 42.98 -96 96c0 53.02 42.98 96 96 96z" id="shape.primary" fill-rule="nonzero" opacity=".8" fill="#301781"></path>
		<path d="M137 206.5c-38.384 0 -69.5 -31.116 -69.5 -69.5c0 -38.384 31.116 -69.5 69.5 -69.5c38.384 0 69.5 31.116 69.5 69.5c0 38.384 -31.116 69.5 -69.5 69.5zm0 -3c36.727 0 66.5 -29.773 66.5 -66.5c0 -36.727 -29.773 -66.5 -66.5 -66.5c-36.727 0 -66.5 29.773 -66.5 66.5c0 36.727 29.773 66.5 66.5 66.5z" id="shape.primary" fill-rule="nonzero" opacity=".2" fill="#301781"></path>
		
	</g>
	<g id="Group" transform="translate(40.000000, 343.000000)">
		<rect id="Rectangle-20" x="0" y="0" width="420" height="58"></rect>
		<text id="headerText.secondary" font-family="Roboto" font-size="50" font-style="normal" font-weight="700" line-spacing="55" fill="#615dec" data-text-alignment="C">
		<tspan x="-9.56121826171875" y="43">OCCoursesExplorer</tspan>
		</text>
	</g>
	<g id="Group-2" transform="translate(40.000000, 408.000000)">
		<rect id="Rectangle-21" x="0" y="0" width="420" height="36">
		</rect>
		<text id="captionText.secondary" opacity=".5" font-family="Roboto" font-size="30" font-weight="300" fill="#615dec" data-text-alignment="C" font-style="normal">
		<tspan x="-7.279876708984375" y="26.5">Make your way through OC paths</tspan>
		</text>
	</g>
	<svg xmlns="http://www.w3.org/2000/svg" xmlns:xlink="http://www.w3.org/1999/xlink" viewBox="0 0 50 50" version="1.1" fill="#615dec" id="svg_icon.primary" x="18" y="250" width="100" height="100"><g id="surface1" fill="#615dec"><path style=" " d="M 27.875 -0.03125 C 27.3125 -0.0117188 26.753906 0.15625 26.3125 0.5625 C 26.300781 0.574219 26.292969 0.582031 26.28125 0.59375 C 25.90625 0.96875 25.398438 1.617188 24.6875 2.53125 C 23.976563 3.445313 23.152344 4.566406 22.3125 5.6875 C 20.632813 7.929688 19.035156 10.085938 18.65625 10.65625 C 18.566406 10.796875 18.511719 10.957031 18.5 11.125 C 18.339844 11.523438 18.292969 11.96875 18.34375 12.34375 C 18.414063 12.839844 18.613281 13.332031 18.84375 13.84375 C 18.453125 14.367188 18.425781 14.390625 18 14.96875 C 17.210938 16.03125 16.410156 17.113281 15.78125 17.96875 C 15.382813 18.511719 15.21875 18.722656 15 19.03125 C 14.886719 19.09375 14.785156 19.183594 14.6875 19.28125 C 14.640625 19.328125 14.597656 19.382813 14.5625 19.4375 C 14.277344 19.863281 14.25 20.359375 14.3125 20.75 C 14.347656 20.96875 14.417969 21.175781 14.5 21.375 C 14.109375 21.988281 14.003906 22.148438 13.5 22.9375 C 12.957031 23.789063 12.417969 24.65625 12 25.3125 C 11.804688 25.617188 11.628906 25.863281 11.5 26.0625 C 11.449219 26.097656 11.390625 26.140625 11.34375 26.1875 C 11.0625 26.46875 10.96875 26.84375 10.96875 27.125 C 10.96875 27.40625 11.039063 27.660156 11.125 27.875 C 11.296875 28.300781 11.582031 28.675781 11.9375 29.03125 C 12.292969 29.386719 12.636719 29.640625 13.0625 29.8125 C 13.277344 29.898438 13.53125 29.96875 13.8125 29.96875 C 14.023438 29.96875 14.292969 29.925781 14.53125 29.78125 C 14.554688 29.761719 14.574219 29.742188 14.59375 29.71875 L 14.65625 29.6875 C 14.691406 29.660156 14.71875 29.625 14.75 29.59375 L 19.4375 26.25 C 19.660156 26.328125 19.871094 26.382813 20.09375 26.40625 C 20.222656 26.417969 20.363281 26.417969 20.5 26.40625 C 20.667969 26.4375 20.839844 26.425781 21 26.375 L 21 28.71875 L 10.15625 45.46875 C 9.964844 45.777344 9.953125 46.164063 10.128906 46.484375 C 10.304688 46.800781 10.636719 47 11 47 L 14.6875 47 C 15.03125 47 15.347656 46.820313 15.53125 46.53125 L 21 38 L 21 49 C 21 49.550781 21.449219 50 22 50 L 25 50 C 25.550781 50 26 49.550781 26 49 L 26 38 L 31.46875 46.53125 C 31.652344 46.820313 31.96875 47 32.3125 47 L 36 47 C 36.363281 47 36.695313 46.800781 36.871094 46.484375 C 37.046875 46.164063 37.035156 45.777344 36.84375 45.46875 L 26 28.71875 L 26 22.75 C 26.371094 22.476563 26.683594 22.230469 27.03125 21.96875 C 27.539063 22.183594 28.027344 22.355469 28.5 22.40625 C 29.117188 22.476563 29.789063 22.429688 30.3125 21.90625 C 30.335938 21.882813 30.355469 21.867188 30.375 21.84375 C 30.785156 21.59375 31.234375 21.269531 31.90625 20.78125 C 32.8125 20.125 33.945313 19.285156 35.0625 18.4375 C 36.179688 17.589844 37.28125 16.71875 38.1875 16 C 39.09375 15.28125 39.730469 14.769531 40.09375 14.40625 C 40.664063 13.835938 40.777344 13.039063 40.6875 12.3125 C 40.597656 11.585938 40.339844 10.816406 39.9375 10 C 39.132813 8.367188 37.792969 6.53125 36.03125 4.71875 C 36.019531 4.707031 36.011719 4.699219 36 4.6875 C 34.234375 2.921875 32.417969 1.554688 30.78125 0.75 C 29.960938 0.347656 29.175781 0.0859375 28.4375 0 C 28.253906 -0.0234375 28.0625 -0.0390625 27.875 -0.03125 Z M 27.8125 2 C 27.894531 1.988281 28.019531 1.976563 28.21875 2 C 28.617188 2.046875 29.195313 2.226563 29.875 2.5625 C 31.238281 3.234375 32.960938 4.460938 34.59375 6.09375 C 36.234375 7.78125 37.453125 9.539063 38.125 10.90625 C 38.460938 11.589844 38.671875 12.179688 38.71875 12.5625 C 38.765625 12.945313 38.667969 13.019531 38.6875 13 C 38.550781 13.136719 37.828125 13.734375 36.9375 14.4375 C 36.046875 15.140625 34.953125 16.003906 33.84375 16.84375 C 32.734375 17.683594 31.636719 18.515625 30.75 19.15625 C 30.699219 19.191406 30.691406 19.195313 30.65625 19.21875 C 30.597656 19.042969 30.484375 18.867188 30.40625 18.6875 C 30.40625 18.667969 30.40625 18.644531 30.40625 18.625 C 30.402344 18.617188 30.410156 18.601563 30.40625 18.59375 C 30.382813 18.527344 30.351563 18.464844 30.3125 18.40625 C 30.292969 18.363281 30.273438 18.320313 30.25 18.28125 C 30.238281 18.269531 30.230469 18.261719 30.21875 18.25 C 30.203125 18.21875 30.203125 18.1875 30.1875 18.15625 C 29.507813 16.835938 28.363281 15.363281 26.90625 13.90625 C 25.449219 12.449219 23.976563 11.304688 22.65625 10.625 C 22.605469 10.597656 22.550781 10.589844 22.5 10.5625 C 22.46875 10.539063 22.4375 10.519531 22.40625 10.5 C 22.386719 10.488281 22.363281 10.480469 22.34375 10.46875 C 22.253906 10.421875 22.160156 10.390625 22.0625 10.375 C 21.882813 10.300781 21.707031 10.210938 21.53125 10.15625 C 22.214844 9.210938 22.785156 8.371094 23.90625 6.875 C 24.742188 5.757813 25.585938 4.648438 26.28125 3.75 C 26.964844 2.871094 27.546875 2.175781 27.6875 2.03125 C 27.691406 2.027344 27.730469 2.011719 27.8125 2 Z M 22.1875 12.6875 C 23.167969 13.265625 24.347656 14.160156 25.5 15.3125 C 26.679688 16.492188 27.578125 17.671875 28.15625 18.65625 C 27.929688 18.835938 27.671875 19.03125 27.34375 19.28125 C 27.125 19.445313 26.8125 19.691406 26.5625 19.875 C 26.554688 19.878906 26.539063 19.871094 26.53125 19.875 C 26.355469 19.945313 26.203125 20.066406 26.09375 20.21875 C 25.5625 20.609375 25.074219 20.953125 24.5 21.375 C 23.46875 22.128906 22.433594 22.878906 21.625 23.46875 C 21.550781 23.523438 21.539063 23.511719 21.46875 23.5625 C 21.453125 23.53125 21.453125 23.5 21.4375 23.46875 C 21.039063 22.707031 20.398438 21.898438 19.59375 21.09375 C 18.800781 20.300781 18.03125 19.679688 17.28125 19.28125 C 17.328125 19.214844 17.324219 19.222656 17.375 19.15625 C 18 18.304688 18.804688 17.21875 19.59375 16.15625 C 20.910156 14.378906 21.804688 13.203125 22.1875 12.6875 Z M 16.84375 21.40625 C 17.25 21.671875 17.691406 22.003906 18.1875 22.5 C 18.703125 23.015625 19.042969 23.484375 19.3125 23.90625 L 19.03125 24.09375 C 18.789063 24.152344 18.578125 24.296875 18.4375 24.5 L 14.59375 27.25 C 14.476563 27.082031 14.34375 26.90625 14.1875 26.75 C 14.03125 26.59375 13.851563 26.496094 13.6875 26.375 C 14.105469 25.71875 14.644531 24.847656 15.1875 24 C 16.023438 22.695313 16.507813 21.933594 16.84375 21.40625 Z M 24 24.21875 L 24 28.78125 C 23.972656 28.914063 23.972656 29.054688 24 29.1875 L 24 34.28125 C 23.957031 34.445313 23.957031 34.617188 24 34.78125 L 24 48 L 23 48 L 23 34.875 C 23.003906 34.832031 23.003906 34.792969 23 34.75 C 23.039063 34.597656 23.039063 34.433594 23 34.28125 L 23 29.15625 C 23.011719 29.0625 23.011719 28.96875 23 28.875 L 23 25 C 23 24.988281 23 24.980469 23 24.96875 C 23.292969 24.753906 23.664063 24.464844 24 24.21875 Z M 21 32.375 L 21 34.3125 L 14.15625 45 L 12.84375 45 Z M 26 32.375 L 34.15625 45 L 32.84375 45 L 26 34.3125 Z " fill="#615dec"></path>
	
	</g>
	</svg>
	<svg xmlns="http://www.w3.org/2000/svg" xmlns:xlink="http://www.w3.org/1999/xlink" viewBox="0 0 64 64" x="140" y="78" width="440" height="440">
	<g id="surface2" fill="#615dec">
	<path  style=" " d="M 18 3.5 C 16.623651 3.5 15.5 4.6237 15.5 6 C 15.5 7.0474603 16.152664 7.9455538 17.070312 8.3164062 L 16.125 13.511719 C 16.082614 13.510192 16.042753 13.5 16 13.5 C 14.5594 13.5 13.321481 14.375168 12.785156 15.621094 L 7.4804688 14.199219 C 7.4858902 14.132306 7.5 14.068263 7.5 14 C 7.5 12.6237 6.3763491 11.5 5 11.5 C 3.623651 11.5 2.5 12.6237 2.5 14 C 2.5 15.3764 3.623651 16.5 5 16.5 C 5.9552732 16.5 6.7786071 15.951537 7.1992188 15.160156 L 12.541016 16.591797 C 12.52503 16.727264 12.5 16.860297 12.5 17 C 12.5 17.78519 12.769005 18.501479 13.207031 19.085938 L 10.234375 22.058594 C 9.7436544 21.708523 9.1469418 21.5 8.5 21.5 C 6.8466485 21.5 5.5 22.8467 5.5 24.5 C 5.5 26.1534 6.8466485 27.5 8.5 27.5 C 10.153352 27.5 11.5 26.1534 11.5 24.5 C 11.5 23.853687 11.288917 23.258044 10.939453 22.767578 L 13.914062 19.792969 C 14.498299 20.230399 15.215413 20.5 16 20.5 C 16.784046 20.5 17.499957 20.229852 18.083984 19.792969 L 21.785156 23.492188 C 21.609451 23.789448 21.5 24.131796 21.5 24.5 C 21.5 25.5994 22.400645 26.5 23.5 26.5 C 24.599356 26.5 25.5 25.5994 25.5 24.5 C 25.5 23.4007 24.599356 22.5 23.5 22.5 C 23.130561 22.5 22.788154 22.606416 22.490234 22.783203 L 18.792969 19.085938 C 19.230995 18.501479 19.5 17.78519 19.5 17 C 19.5 16.860297 19.47497 16.727264 19.458984 16.591797 L 24.800781 15.160156 C 25.221393 15.951537 26.044728 16.5 27 16.5 C 28.376349 16.5 29.5 15.3764 29.5 14 C 29.5 12.6237 28.376349 11.5 27 11.5 C 25.623652 11.5 24.5 12.6237 24.5 14 C 24.5 14.068263 24.51411 14.132306 24.519531 14.199219 L 19.214844 15.621094 C 18.823718 14.712476 18.053778 14.015614 17.109375 13.697266 L 18.054688 8.4941406 C 19.405338 8.4641064 20.5 7.3576512 20.5 6 C 20.5 4.6237 19.376348 3.5 18 3.5 z M 18 4.5 C 18.839644 4.5 19.5 5.1604 19.5 6 C 19.5 6.8397 18.839644 7.5 18 7.5 C 17.160355 7.5 16.5 6.8397 16.5 6 C 16.5 5.1604 17.160355 4.5 18 4.5 z M 5 12.5 C 5.8396449 12.5 6.5 13.1604 6.5 14 C 6.5 14.8397 5.8396449 15.5 5 15.5 C 4.1603552 15.5 3.5 14.8397 3.5 14 C 3.5 13.1604 4.1603552 12.5 5 12.5 z M 27 12.5 C 27.839645 12.5 28.5 13.1604 28.5 14 C 28.5 14.8397 27.839645 15.5 27 15.5 C 26.160356 15.5 25.5 14.8397 25.5 14 C 25.5 13.1604 26.160356 12.5 27 12.5 z M 16 14.5 C 17.393647 14.5 18.5 15.6064 18.5 17 C 18.5 18.3937 17.393647 19.5 16 19.5 C 14.606353 19.5 13.5 18.3937 13.5 17 C 13.5 15.6064 14.606353 14.5 16 14.5 z M 16 15.5 C 15.177649 15.5 14.5 16.1777 14.5 17 C 14.5 17.8224 15.177649 18.5 16 18.5 C 16.822351 18.5 17.5 17.8224 17.5 17 C 17.5 16.1777 16.822351 15.5 16 15.5 z M 16 16.5 C 16.285649 16.5 16.5 16.7144 16.5 17 C 16.5 17.2857 16.285649 17.5 16 17.5 C 15.714353 17.5 15.5 17.2857 15.5 17 C 15.5 16.7144 15.714353 16.5 16 16.5 z M 8.5 22.5 C 9.6166489 22.5 10.5 23.3834 10.5 24.5 C 10.5 25.6167 9.6166489 26.5 8.5 26.5 C 7.3833513 26.5 6.5 25.6167 6.5 24.5 C 6.5 23.3834 7.3833513 22.5 8.5 22.5 z M 23.5 23.5 C 24.062658 23.5 24.5 23.9374 24.5 24.5 C 24.5 25.0627 24.062658 25.5 23.5 25.5 C 22.937343 25.5 22.5 25.0627 22.5 24.5 C 22.5 23.9374 22.937343 23.5 23.5 23.5 z " fill="#fff" opacity=".6"/></g></svg>
	
	
</g>
</svg>